<svg xmlns="http://www.w3.org/2000/svg" xmlns:xlink="http://www.w3.org/1999/xlink" width="500" zoomAndPan="magnify" viewBox="0 0 375 374.999991" height="500" preserveAspectRatio="xMidYMid meet" version="1.0"><defs><clipPath id="f26c1851a6"><path d="M 3.125 6.25 L 372 6.25 L 372 375 L 3.125 375 Z M 3.125 6.25 " clip-rule="nonzero"/></clipPath><clipPath id="ecc9b2c07f"><rect x="0" width="369" y="0" height="369"/></clipPath><clipPath id="5ed4c66437"><path d="M 123.640625 74.445312 L 254.652344 74.445312 L 254.652344 105.96875 L 123.640625 105.96875 Z M 123.640625 74.445312 " clip-rule="nonzero"/></clipPath><clipPath id="646c77a20d"><path d="M 123.640625 99.96875 L 123.640625 80.445312 C 123.640625 78.855469 124.273438 77.328125 125.398438 76.203125 C 126.523438 75.078125 128.050781 74.445312 129.640625 74.445312 L 248.621094 74.445312 C 250.210938 74.445312 251.738281 75.078125 252.863281 76.203125 C 253.988281 77.328125 254.621094 78.855469 254.621094 80.445312 L 254.621094 99.96875 C 254.621094 101.558594 253.988281 103.085938 252.863281 104.210938 C 251.738281 105.335938 250.210938 105.96875 248.621094 105.96875 L 129.640625 105.96875 C 128.050781 105.96875 126.523438 105.335938 125.398438 104.210938 C 124.273438 103.085938 123.640625 101.558594 123.640625 99.96875 Z M 123.640625 99.96875 " clip-rule="nonzero"/></clipPath><clipPath id="f841ca8182"><path d="M 0.640625 0.445312 L 131.640625 0.445312 L 131.640625 31.96875 L 0.640625 31.96875 Z M 0.640625 0.445312 " clip-rule="nonzero"/></clipPath><clipPath id="ba58702171"><path d="M 0.640625 25.96875 L 0.640625 6.445312 C 0.640625 4.855469 1.273438 3.328125 2.398438 2.203125 C 3.523438 1.078125 5.050781 0.445312 6.640625 0.445312 L 125.621094 0.445312 C 127.210938 0.445312 128.738281 1.078125 129.863281 2.203125 C 130.988281 3.328125 131.621094 4.855469 131.621094 6.445312 L 131.621094 25.96875 C 131.621094 27.558594 130.988281 29.085938 129.863281 30.210938 C 128.738281 31.335938 127.210938 31.96875 125.621094 31.96875 L 6.640625 31.96875 C 5.050781 31.96875 3.523438 31.335938 2.398438 30.210938 C 1.273438 29.085938 0.640625 27.558594 0.640625 25.96875 Z M 0.640625 25.96875 " clip-rule="nonzero"/></clipPath><clipPath id="f3c69abf0b"><rect x="0" width="132" y="0" height="32"/></clipPath><clipPath id="9afc47bc77"><path d="M 172.011719 97.554688 L 202.988281 97.554688 L 202.988281 277.496094 L 172.011719 277.496094 Z M 172.011719 97.554688 " clip-rule="nonzero"/></clipPath><clipPath id="990fdb3db8"><path d="M 181.011719 97.554688 L 193.988281 97.554688 C 196.375 97.554688 198.664062 98.503906 200.351562 100.191406 C 202.039062 101.878906 202.988281 104.167969 202.988281 106.554688 L 202.988281 268.445312 C 202.988281 270.832031 202.039062 273.121094 200.351562 274.808594 C 198.664062 276.496094 196.375 277.445312 193.988281 277.445312 L 181.011719 277.445312 C 178.625 277.445312 176.335938 276.496094 174.648438 274.808594 C 172.960938 273.121094 172.011719 270.832031 172.011719 268.445312 L 172.011719 106.554688 C 172.011719 104.167969 172.960938 101.878906 174.648438 100.191406 C 176.335938 98.503906 178.625 97.554688 181.011719 97.554688 Z M 181.011719 97.554688 " clip-rule="nonzero"/></clipPath><clipPath id="631067210c"><path d="M 0.0117188 0.554688 L 30.988281 0.554688 L 30.988281 180.496094 L 0.0117188 180.496094 Z M 0.0117188 0.554688 " clip-rule="nonzero"/></clipPath><clipPath id="b301f9c509"><path d="M 9.011719 0.554688 L 21.988281 0.554688 C 24.375 0.554688 26.664062 1.503906 28.351562 3.191406 C 30.039062 4.878906 30.988281 7.167969 30.988281 9.554688 L 30.988281 171.445312 C 30.988281 173.832031 30.039062 176.121094 28.351562 177.808594 C 26.664062 179.496094 24.375 180.445312 21.988281 180.445312 L 9.011719 180.445312 C 6.625 180.445312 4.335938 179.496094 2.648438 177.808594 C 0.960938 176.121094 0.0117188 173.832031 0.0117188 171.445312 L 0.0117188 9.554688 C 0.0117188 7.167969 0.960938 4.878906 2.648438 3.191406 C 4.335938 1.503906 6.625 0.554688 9.011719 0.554688 Z M 9.011719 0.554688 " clip-rule="nonzero"/></clipPath><clipPath id="aa1b2c40f0"><rect x="0" width="31" y="0" height="181"/></clipPath></defs><g clip-path="url(#f26c1851a6)"><g transform="matrix(1, 0, 0, 1, 3, 6)"><g clip-path="url(#ecc9b2c07f)"><path fill="#000000" d="M 248.25 69.996094 C 250.246094 71.136719 250.296875 71.484375 250.3125 83.800781 C 250.324219 94.765625 250.261719 95.707031 249.445312 96.714844 L 248.5625 97.804688 L 226.347656 98.035156 L 204.128906 98.265625 L 200.972656 101.710938 L 200.972656 114.957031 L 206.621094 115.257812 C 224.171875 116.1875 241.292969 121.070312 254.707031 128.976562 C 303.355469 157.640625 300.152344 227.808594 249.632812 240.089844 C 215.6875 248.34375 183.277344 226.832031 173.71875 189.707031 C 171.441406 180.859375 170.925781 175.359375 170.664062 157.164062 C 170.46875 143.664062 170.292969 140 169.839844 140.175781 C 169.523438 140.296875 168.25 140.535156 167.015625 140.707031 C 128.640625 146.046875 106.671875 183.246094 117.820312 224.011719 L 119.035156 228.449219 L 122.296875 228.722656 C 147.382812 230.847656 152.804688 265.375 129.578125 275.097656 C 111.972656 282.464844 92.386719 265.558594 97.484375 247.394531 L 98.234375 244.710938 L 96.78125 241.457031 C 86.28125 217.976562 86.734375 185.539062 97.878906 162.378906 C 110.175781 136.832031 132.660156 120.796875 162.917969 115.996094 C 166.46875 115.433594 169.636719 114.90625 169.953125 114.820312 C 171.03125 114.535156 170.730469 102.75 169.59375 100.890625 C 167.867188 98.054688 167.691406 98.035156 144.464844 98.035156 L 123.441406 98.035156 L 121.175781 95.769531 L 121.175781 84.027344 C 121.175781 71.121094 121.179688 71.082031 123.054688 70.113281 C 124.773438 69.222656 246.703125 69.109375 248.25 69.996094 M 209.273438 140.945312 C 239.957031 144.015625 260.304688 160.378906 263.226562 184.335938 C 266.535156 211.445312 233.183594 226.796875 213.617188 207.171875 C 203.40625 196.929688 201.441406 189.628906 201.105469 160.648438 L 200.871094 140.46875 L 203.34375 140.535156 C 204.703125 140.570312 207.371094 140.753906 209.273438 140.945312 " fill-opacity="1" fill-rule="evenodd"/></g></g></g><g clip-path="url(#5ed4c66437)"><g clip-path="url(#646c77a20d)"><g transform="matrix(1, 0, 0, 1, 123, 74)"><g clip-path="url(#f3c69abf0b)"><g clip-path="url(#f841ca8182)"><g clip-path="url(#ba58702171)"><path fill="#000000" d="M 0.640625 31.96875 L 0.640625 0.445312 L 131.652344 0.445312 L 131.652344 31.96875 Z M 0.640625 31.96875 " fill-opacity="1" fill-rule="nonzero"/></g></g></g></g></g></g><g clip-path="url(#9afc47bc77)"><g clip-path="url(#990fdb3db8)"><g transform="matrix(1, 0, 0, 1, 172, 97)"><g clip-path="url(#aa1b2c40f0)"><g clip-path="url(#631067210c)"><g clip-path="url(#b301f9c509)"><path fill="#000000" d="M 0.0117188 0.554688 L 30.988281 0.554688 L 30.988281 180.496094 L 0.0117188 180.496094 Z M 0.0117188 0.554688 " fill-opacity="1" fill-rule="nonzero"/></g></g></g></g></g></g></svg>